PathFileType	4	(X/Y/Z)	H:\MAC\Pilotos\MDrajagopal3\static1.trc																																																																																																																																																																																																																																								
DataRate	CameraRate	NumFrames	NumMarkers	Units	OrigDataRate	OrigDataStartFrame	OrigNumFrames																																																																																																																																																																																																																																				
150	150	4	78	mm	150	751	1500																																																																																																																																																																																																																																				
Frame#	Time	RACR			LACR			C7			CLAV			RASH			RPSH			LASH			LPSH			RUA1			RUA2			RUA3			RLEL			RMEL			RFAsuperior			RFAradius			RFAulna			LUA1			LUA2			LUA3			LLEL			LMEL			LFAsuperior			LFAradius			LFAulna			RASI			LASI			RPSI			LPSI			RTH1			RTH2			RTH3			RLFC			RMFC			RTB1			RTB2			RTB3			RLMAL			RMMAL			RCAL			RTOE			RMT5			LTH1			LTH2			LTH3			LLFC			LMFC			LTB1			LTB2			LTB3			LLMAL			LMMAL			LCAL			LTOE			LMT5			RSJC			LSJC			RHJC			LHJC			RKJC			LKJC			RAJC			LAJC			REJC			LEJC			Mid_ASIS			Mid_PSIS			RASHv			RPSHv			LPSHv			RLFCv			RMFCv			RLMALv			RMMALv			LLFCv			LMFCv			LLMALv			LMMALv			LASHv		
		X1	Y1	Z1	X2	Y2	Z2	X3	Y3	Z3	X4	Y4	Z4	X5	Y5	Z5	X6	Y6	Z6	X7	Y7	Z7	X8	Y8	Z8	X9	Y9	Z9	X10	Y10	Z10	X11	Y11	Z11	X12	Y12	Z12	X13	Y13	Z13	X14	Y14	Z14	X15	Y15	Z15	X16	Y16	Z16	X17	Y17	Z17	X18	Y18	Z18	X19	Y19	Z19	X20	Y20	Z20	X21	Y21	Z21	X22	Y22	Z22	X23	Y23	Z23	X24	Y24	Z24	X25	Y25	Z25	X26	Y26	Z26	X27	Y27	Z27	X28	Y28	Z28	X29	Y29	Z29	X30	Y30	Z30	X31	Y31	Z31	X32	Y32	Z32	X33	Y33	Z33	X34	Y34	Z34	X35	Y35	Z35	X36	Y36	Z36	X37	Y37	Z37	X38	Y38	Z38	X39	Y39	Z39	X40	Y40	Z40	X41	Y41	Z41	X42	Y42	Z42	X43	Y43	Z43	X44	Y44	Z44	X45	Y45	Z45	X46	Y46	Z46	X47	Y47	Z47	X48	Y48	Z48	X49	Y49	Z49	X50	Y50	Z50	X51	Y51	Z51	X52	Y52	Z52	X53	Y53	Z53	X54	Y54	Z54	X55	Y55	Z55	X56	Y56	Z56	X57	Y57	Z57	X58	Y58	Z58	X59	Y59	Z59	X60	Y60	Z60	X61	Y61	Z61	X62	Y62	Z62	X63	Y63	Z63	X64	Y64	Z64	X65	Y65	Z65	X66	Y66	Z66	X67	Y67	Z67	X68	Y68	Z68	X69	Y69	Z69	X70	Y70	Z70	X71	Y71	Z71	X72	Y72	Z72	X73	Y73	Z73	X74	Y74	Z74	X75	Y75	Z75	X76	Y76	Z76	X77	Y77	Z77	X78	Y78	Z78
																																																																																																																																																																																																																																											
751	5	692.53906	1390.70154	1387.17957	703.31268	1395.30908	1050.76941	645.66754	1411.86902	1209.01318	794.06128	1370.46582	1261.7179	763.04047	1363.69629	1406.77661	656.15271	1355.38916	1398.1438	776.83337	1378.9718	1044.38635	674.10852	1356.24353	1031.45789	697.63544	1271.83704	1460.75427	739.63513	1203.73755	1479.76782	666.86816	1161.25061	1453.51953	683.86603	1116.65759	1493.22156	741.95715	1089.92871	1432.33228	756.77472	1039.73291	1576.64087	778.34753	964.96564	1628.34045	742.26984	912.98529	1586.42371	705.20227	1297.09692	978.50977	748.1748	1212.71179	949.89801	687.5921	1169.5614	988.92059	717.90045	1134.51392	923.71497	749.29419	1093.51025	999.59314	780.51141	1028.85999	846.38367	827.31226	968.08246	821.15027	778.14246	917.87701	842.16888	829.43494	903.77368	1337.74707	832.82007	898.84576	1110.72437	654.75677	926.9259	1261.72754	651.81036	926.01459	1179.57764	734.97888	798.4693	1389.62268	690.92487	640.00708	1371.6449	757.54144	610.33789	1399.99951	752.04047	469.97488	1392.08582	758.20355	450.13739	1263.87268	784.8963	342.98489	1355.06482	703.1048	327.04031	1425.83008	738.37024	200.1936	1405.39954	684.79681	82.68852	1407.59607	710.04321	86.78567	1319.17688	636.26605	35.97596	1372.14539	845.53058	36.92527	1377.82935	806.96979	33.4105	1425.02808	748.87451	805.98376	1048.49866	701.4375	657.20624	1060.32568	752.53455	580.87689	1045.71143	756.19934	467.55618	1053.57813	742.10553	450.64911	1178.97913	782.93695	353.21567	1095.64465	691.47803	312.59952	1019.36548	746.24219	183.21375	1058.84851	692.63782	77.13947	1044.3208	712.17719	87.1513	1132.77576	643.58344	45.84065	1075.14697	844.89514	36.98516	1079.16174	817.51642	29.71877	1031.17957	709.59662	1359.54272	1402.46021	725.47095	1367.60767	1037.92212	736.949	839.647	1321.513	740.844	839.527	1117.45	755.12201	460.05615	1327.97925	749.15247	459.10266	1116.27856	697.41998	84.73709	1363.38647	702.40753	82.14539	1088.54834	712.91156	1103.29321	1462.77698	733.59729	1114.01208	961.65405	831.1275	901.30975	1224.23572	653.28357	926.47028	1220.65259	801.93439	1310.84216	1445.38721	694.1391	1316.28784	1418.77612	738.03705	1398.16382	996.87213	724.71692	501.24438	1414.57764	782.9198	460.27029	1298.0083	703.13483	67.00906	1447.07886	729.05542	62.09887	1359.2915	773.19727	515.28839	1012.75214	782.62183	485.26465	1142.08203	710.49274	60.28351	1031.29944	747.15387	73.31049	1114.64563	823.25592	1376.76392	945.79181
752	5.007	692.47211	1390.68884	1387.17664	703.27222	1395.30725	1050.76233	645.61035	1411.8606	1209.00513	794.01074	1370.46301	1261.71802	762.98389	1363.7019	1406.771	656.12933	1355.35449	1398.14148	776.78851	1378.97766	1044.38342	674.06207	1356.23999	1031.44629	697.57953	1271.82104	1460.75012	739.59149	1203.73486	1479.75903	666.82709	1161.23108	1453.51843	683.81927	1116.65088	1493.21301	741.9234	1089.92529	1432.32983	756.73291	1039.72974	1576.62976	778.29944	964.96552	1628.34265	742.23187	912.97943	1586.42554	705.18195	1297.08459	978.50952	748.16229	1212.70178	949.90155	687.57629	1169.5531	988.91852	717.8808	1134.51074	923.7226	749.29352	1093.49829	999.60181	780.52875	1028.84387	846.39697	827.32117	968.07019	821.17517	778.14136	917.87354	842.18494	829.43396	903.77185	1337.729	832.82782	898.85333	1110.71997	654.75385	926.93268	1261.70447	651.80487	926.00714	1179.55725	734.97784	798.47205	1389.62	690.9184	640.01093	1371.64404	757.54016	610.34003	1400.00269	752.04309	469.96252	1392.0675	758.20459	450.14716	1263.86292	784.90137	342.98715	1355.06201	703.10291	327.04413	1425.83032	738.36676	200.19173	1405.40613	684.78815	82.68726	1407.59668	710.04059	86.79814	1319.17749	636.25702	35.97884	1372.15479	845.52234	36.92948	1377.83203	806.96796	33.41594	1425.02954	748.89081	805.97443	1048.49719	701.453	657.20221	1060.32947	752.53455	580.86926	1045.71375	756.2052	467.55362	1053.58716	742.11523	450.6445	1178.97607	782.935	353.21039	1095.646	691.48541	312.60544	1019.35925	746.26202	183.42705	1058.84827	692.63452	77.14594	1044.31897	712.17389	87.14887	1132.78418	643.5816	45.84393	1075.12903	844.94287	36.96221	1079.18335	817.51599	29.71812	1031.19043	709.55658	1359.5282	1402.45618	725.42529	1367.60876	1037.91479	736.946	839.647	1321.496	740.85	839.53	1117.433	755.12384	460.05484	1327.96521	749.16022	459.09906	1116.28162	697.41437	84.74271	1363.38708	702.40424	82.14741	1088.55164	712.87134	1103.28809	1462.77148	733.58716	1114.00452	961.66223	831.13092	901.31256	1224.22449	653.27936	926.46991	1220.63086	801.8714	1310.84082	1445.37219	694.07001	1316.27039	1418.77148	738.00922	1398.1532	996.8761	724.70508	501.24786	1414.57935	782.9079	460.26996	1298.01135	703.13641	67.01454	1447.08264	729.05902	62.10153	1359.29602	773.20343	515.27832	1012.74963	782.64044	485.25504	1142.07886	710.49744	60.28614	1031.25732	747.15326	73.30235	1114.60754	823.23462	1376.75842	945.80457
753	5.013	692.41107	1390.67908	1387.1748	703.22986	1395.30139	1050.76147	645.55621	1411.84595	1208.99622	793.95526	1370.4718	1261.71863	762.91034	1363.69373	1406.77917	656.03442	1355.3595	1398.12036	776.74902	1378.98706	1044.38049	674.01813	1356.23621	1031.44019	697.51678	1271.80908	1460.74341	739.53607	1203.73108	1479.7594	666.77679	1161.22131	1453.51379	683.7818	1116.64136	1493.21021	741.89777	1089.9137	1432.33044	756.69257	1039.72998	1576.61731	778.26624	964.96527	1628.34143	742.21375	912.97968	1586.427	705.1571	1297.07568	978.50104	748.13989	1212.69519	949.90491	687.56396	1169.54175	988.92175	717.87555	1134.49597	923.729	749.27509	1093.50732	999.61255	780.53278	1028.83826	846.40424	827.32867	968.06396	821.19659	778.151	917.85248	842.21375	829.42877	903.77148	1337.72925	832.83588	898.85291	1110.70569	654.74829	926.92761	1261.69458	651.80585	926.00226	1179.55481	734.97455	798.46838	1389.61121	690.92004	640.01123	1371.64075	757.54169	610.34039	1399.99329	752.05243	469.97574	1392.07129	758.21045	450.15067	1263.84521	784.89996	342.98608	1355.05042	703.0976	327.04202	1425.81897	738.36566	200.19455	1405.40576	684.78461	82.68916	1407.5896	710.04803	86.79183	1319.1676	636.26337	35.96771	1372.15112	845.52771	36.92385	1377.82434	806.96631	33.41166	1425.03149	748.88342	805.97656	1048.48743	701.46008	657.19299	1060.32117	752.54333	580.86578	1045.70178	756.20929	467.55478	1053.57935	742.12189	450.64835	1178.97351	782.95605	353.21552	1095.65356	691.48993	312.60016	1019.3609	746.25464	183.20404	1058.84363	692.63904	77.14629	1044.31982	712.17212	87.13918	1132.77563	643.59338	45.8297	1075.1488	844.93335	36.96704	1079.18054	817.50836	29.7216	1031.18274	709.47241	1359.52661	1402.44983	725.38354	1367.61157	1037.91028	736.945	839.643	1321.488	740.855	839.528	1117.425	755.13147	460.0632	1327.95825	749.16559	459.10156	1116.27649	697.41632	84.74049	1363.37866	702.40558	82.14273	1088.54773	712.83978	1103.27759	1462.77039	733.57532	1114.00171	961.67078	831.13232	901.31219	1224.21753	653.2771	926.46497	1220.62476	801.80627	1310.83801	1445.3728	694.00452	1316.25549	1418.76196	737.97925	1398.14819	996.85516	724.71265	501.24414	1414.5741	782.9079	460.26688	1298.0022	703.14722	67.0141	1447.08374	729.07306	62.0976	1359.29822	773.22382	515.28363	1012.73309	782.67358	485.25909	1142.06104	710.50928	60.28753	1031.29236	747.1673	73.31011	1114.6405	823.20587	1376.75134	945.78656
754	5.02	692.34924	1390.67017	1387.16699	703.18622	1395.29309	1050.75085	645.49835	1411.83276	1208.9895	793.89417	1370.48242	1261.71521	762.84515	1363.69556	1406.78027	656.00348	1355.31567	1398.12976	776.70819	1378.98828	1044.38062	673.98444	1356.2251	1031.43665	697.45856	1271.80115	1460.7373	739.48145	1203.72449	1479.76746	666.74017	1161.20654	1453.50293	683.73505	1116.63391	1493.20618	741.86871	1089.91553	1432.3324	756.64752	1039.72559	1576.63831	778.22925	964.97162	1628.35254	742.19891	912.97589	1586.42395	705.13245	1297.06555	978.50952	748.13019	1212.68884	949.90692	687.5481	1169.53076	988.9234	717.87061	1134.48254	923.72693	749.27844	1093.4939	999.60547	780.52881	1028.82446	846.42487	827.32977	968.05383	821.21509	778.16315	917.83807	842.23743	829.41943	903.77435	1337.73035	832.83954	898.84381	1110.71191	654.74609	926.9248	1261.6803	651.81152	925.99493	1179.54443	734.96704	798.46777	1389.60474	690.91217	640.01593	1371.63879	757.53491	610.34241	1399.98816	752.05084	469.95694	1392.0553	758.21906	450.15051	1263.85071	784.90265	342.98444	1355.05994	703.09021	327.04535	1425.81702	738.37396	200.19138	1405.40002	684.78973	82.68106	1407.58838	710.05426	86.79024	1319.16748	636.27161	35.97092	1372.1416	845.53369	36.92584	1377.82727	806.97919	33.40931	1425.03149	748.89087	805.97595	1048.48438	701.45996	657.19348	1060.3092	752.55695	580.85797	1045.68994	756.23486	467.54227	1053.58057	742.12427	450.64554	1178.97998	782.86804	352.9505	1095.13586	691.48309	312.60114	1019.35571	746.27271	183.41829	1058.84314	692.63922	77.13715	1044.32947	712.18188	87.13447	1132.77893	643.58191	45.83807	1075.13806	844.90027	36.9806	1079.16602	817.53101	29.71096	1031.18567	709.42432	1359.50562	1402.45508	725.34631	1367.60669	1037.90869	736.938	839.645	1321.488	740.862	839.518	1117.425	755.13495	460.05371	1327.953	749.17957	459.0939	1116.28027	697.422	84.73565	1363.37793	702.41058	82.13581	1088.5542	712.80188	1103.27466	1462.76929	733.57452	1113.98828	961.6662	831.12946	901.30908	1224.22119	653.27881	926.45984	1220.6123	801.74561	1310.84814	1445.39575	693.95404	1316.24683	1418.75427	737.94019	1398.14087	996.87402	724.70477	501.24384	1414.57129	782.89374	460.26501	1297.9967	703.12915	67.01812	1447.0918	729.06738	62.09766	1359.31018	773.22375	515.28284	1012.72638	782.65704	485.255	1142.05481	709.82092	60.11658	1031.02563	746.70563	73.10378	1114.2793	823.1723	1376.75977	945.80798
